<svg xmlns="http://www.w3.org/2000/svg" width="15" height="15" viewBox="0 0 15 15">
    <g fill="#D29851" fill-rule="nonzero">
        <path d="M4.022.018H5.05v4.093H4.022zM9.833.018h1.028v4.093H9.833zM2.675 6.449h2.25v1.028h-2.25zM2.675 11.233h2.25v1.028h-2.25zM2.675 8.841h2.25v1.028h-2.25zM6.307 6.449h2.25v1.028h-2.25zM6.307 11.233h2.25v1.028h-2.25zM6.307 8.841h2.25v1.028h-2.25zM9.957 6.449h2.25v1.028h-2.25zM9.957 11.233h2.25v1.028h-2.25zM9.957 8.841h2.25v1.028h-2.25z"/>
        <path d="M11.57 2.87h2.179v10.914H1.134V2.87h2.18V1.843H.105v12.969h14.67V1.842H11.57z"/>
        <path d="M5.758 1.843h3.349v1.028H5.758z"/>
    </g>
</svg>
